<svg version="1.1" xmlns="http://www.w3.org/2000/svg" 
  width="6600" height="700"
  stroke="white" fill="none">
  
  <path d="M 150,50 Q 300,100 450,150 Q 600,200 550,250 Q 500,300 600,350 Q 700,400 550,450 Q 400,500 250,550 Q 100,600 150,650 Q 200,700 200,400 Q 200,100 150,50 Q 100,0 250,150 Q 400,300 550,250 Q 700,200 600,350 Q 500,500 550,450 Q 600,400 450,550 Q 300,700 150,650 Q 0,600 200,400 Q 400,200 550,250 Q 700,300 450,150 Q 200,0 150,50 Q 100,100 200,350 Q 300,600 150,650 Q 0,700 250,550 Q 500,400 550,450 Q 600,500 600,400 Q 600,300 550,250 Q 500,200 250,150 Q 0,100 150,50 Q 300,0 200,350 Q 100,700 150,650 Q 200,600 450,550 Q 700,500 550,450 Q 400,400 350,400 Q 300,400 150,450 Q 0,500 250,550 Q 500,600 550,650 Q 600,700 500,350 Q 400,0 550,50 Q 700,100 450,150 Q 200,200 150,250 Q 100,300 100,400 Q 100,500 150,450 Q 200,400 450,550 Q 700,700 550,650 Q 400,600 500,350 Q 600,100 550,50 Q 500,0 250,150 Q 0,300 150,250 Q 300,200 500,400 Q 700,600 550,650 Q 400,700 250,550 Q 100,400 150,450 Q 200,500 100,350 Q 0,200 150,250 Q 300,300 450,150 Q 600,0 550,50 Q 500,100 500,400 Q 500,700 550,650 Q 600,600 450,550 Q 300,500 150,450 Q 0,400 100,350 Q 200,300 150,250 Q 100,200 250,150 Q 400,100 550,50 Q 700,0 350,0 Q 0,0 150,50 "></path>

  <path transform="translate(700,0)" d="M 50,0 Q 100,0 300,350 Q 500,700 450,700 Q 400,700 350,700 Q 300,700 250,700 Q 200,700 400,350 Q 600,0 650,0 Q 700,0 350,50 Q 0,100 50,100 Q 100,100 300,350 Q 500,600 450,600 Q 400,600 350,600 Q 300,600 250,600 Q 200,600 400,350 Q 600,100 650,100 Q 700,100 700,300 Q 700,500 650,500 Q 600,500 400,350 Q 200,200 250,200 Q 300,200 350,200 Q 400,200 450,200 Q 500,200 300,350 Q 100,500 50,500 Q 0,500 350,450 Q 700,400 650,400 Q 600,400 400,350 Q 200,300 250,300 Q 300,300 350,300 Q 400,300 450,300 Q 500,300 300,350 Q 100,400 50,400 Q 0,400 350,350 Q 700,300 650,300 Q 600,300 400,350 Q 200,400 250,400 Q 300,400 350,400 Q 400,400 450,400 Q 500,400 300,350 Q 100,300 50,300 Q 0,300 350,250 Q 700,200 650,200 Q 600,200 400,350 Q 200,500 250,500 Q 300,500 350,500 Q 400,500 450,500 Q 500,500 300,350 Q 100,200 50,200 Q 0,200 0,400 Q 0,600 50,600 Q 100,600 300,350 Q 500,100 450,100 Q 400,100 350,100 Q 300,100 250,100 Q 200,100 400,350 Q 600,600 650,600 Q 700,600 350,650 Q 0,700 50,700 Q 100,700 300,350 Q 500,0 450,0 Q 400,0 350,0 Q 300,0 250,0 Q 200,0 400,350 Q 600,700 650,700 Q 700,700 350,350 Q 0,0 50,0 "></path>

  <path transform="translate(1450,0)" d="M 100,150 Q 200,300 150,450 Q 100,600 200,550 Q 300,500 300,600 Q 300,700 200,550 Q 100,400 150,250 Q 200,100 100,150 Q 0,200 150,200 Q 300,200 200,150 Q 100,100 150,250 Q 200,400 100,550 Q 0,700 0,600 Q 0,500 100,550 Q 200,600 150,450 Q 100,300 200,150 Q 300,0 450,50 Q 600,100 500,150 Q 400,200 550,450 Q 700,700 600,550 Q 500,400 500,500 Q 500,600 600,550 Q 700,500 550,250 Q 400,0 500,150 Q 600,300 550,300 Q 500,300 600,150 Q 700,0 550,250 Q 400,500 500,550 Q 600,600 600,500 Q 600,400 500,550 Q 400,700 550,450 Q 700,200 600,150 Q 500,100 600,200 Q 700,300 600,150 Q 500,0 550,250 Q 600,500 500,550 Q 400,600 400,500 Q 400,400 500,550 Q 600,700 550,450 Q 500,200 600,150 Q 700,100 550,100 Q 400,100 500,150 Q 600,200 550,450 Q 500,700 600,550 Q 700,400 700,500 Q 700,600 600,550 Q 500,500 550,250 Q 600,0 500,150 Q 400,300 250,250 Q 100,200 200,150 Q 300,100 150,250 Q 0,400 100,550 Q 200,700 200,600 Q 200,500 100,550 Q 0,600 150,450 Q 300,300 200,150 Q 100,0 150,0 Q 200,0 100,150 Q 0,300 150,450 Q 300,600 200,550 Q 100,500 100,600 Q 100,700 200,550 Q 300,400 150,250 Q 0,100 100,150 Q 200,200 100,100 Q 0,0 100,150 "></path>

  <path transform="translate(2150,0)" d="M 100,200 Q 200,400 450,450 Q 700,500 650,400 Q 600,300 500,150 Q 400,0 400,350 Q 400,700 200,600 Q 0,500 150,350 Q 300,200 250,150 Q 200,100 100,400 Q 0,700 300,700 Q 600,700 650,400 Q 700,100 600,150 Q 500,200 500,350 Q 500,500 350,550 Q 200,600 150,450 Q 100,300 150,300 Q 200,300 250,450 Q 300,600 400,500 Q 500,400 500,250 Q 500,100 600,150 Q 700,200 650,400 Q 600,600 350,650 Q 100,700 100,400 Q 100,100 50,150 Q 0,200 50,350 Q 100,500 250,550 Q 400,600 400,450 Q 400,300 500,150 Q 600,0 650,200 Q 700,400 500,400 Q 300,400 300,200 Q 300,0 200,100 Q 100,200 100,400 Q 100,600 300,600 Q 500,600 450,400 Q 400,200 500,150 Q 600,100 600,250 Q 600,400 450,550 Q 300,700 250,350 Q 200,0 250,150 Q 300,300 300,400 Q 300,500 350,450 Q 400,400 450,200 Q 500,0 600,150 Q 700,300 700,450 Q 700,600 400,500 Q 100,400 50,250 Q 0,100 150,100 Q 300,100 150,250 Q 0,400 350,550 Q 700,700 700,350 Q 700,0 600,150 Q 500,300 450,400 Q 400,500 300,500 Q 200,500 100,400 Q 0,300 50,150 Q 100,0 150,350 Q 200,700 400,600 Q 600,500 600,350 Q 600,200 500,150 Q 400,100 450,400 Q 500,700 250,650 Q 0,600 100,400 Q 200,200 100,100 Q 0,0 100,200 "></path>

  <path transform="translate(2900,0)" d="M 300,350 Q 600,700 550,700 Q 500,700 400,350 Q 300,0 350,0 Q 400,0 300,350 Q 200,700 150,700 Q 100,700 400,350 Q 700,0 700,300 Q 700,600 400,350 Q 100,100 150,100 Q 200,100 300,350 Q 400,600 350,600 Q 300,600 400,350 Q 500,100 550,100 Q 600,100 300,350 Q 0,600 350,550 Q 700,500 400,350 Q 100,200 150,200 Q 200,200 300,350 Q 400,500 350,500 Q 300,500 400,350 Q 500,200 550,200 Q 600,200 300,350 Q 0,500 0,400 Q 0,300 300,350 Q 600,400 550,400 Q 500,400 400,350 Q 300,300 350,300 Q 400,300 300,350 Q 200,400 150,400 Q 100,400 400,350 Q 700,300 350,350 Q 0,400 300,350 Q 600,300 550,300 Q 500,300 400,350 Q 300,400 350,400 Q 400,400 300,350 Q 200,300 150,300 Q 100,300 400,350 Q 700,400 700,300 Q 700,200 400,350 Q 100,500 150,500 Q 200,500 300,350 Q 400,200 350,200 Q 300,200 400,350 Q 500,500 550,500 Q 600,500 300,350 Q 0,200 350,150 Q 700,100 400,350 Q 100,600 150,600 Q 200,600 300,350 Q 400,100 350,100 Q 300,100 400,350 Q 500,600 550,600 Q 600,600 300,350 Q 0,100 0,400 Q 0,700 300,350 Q 600,0 550,0 Q 500,0 400,350 Q 300,700 350,700 Q 400,700 300,350 Q 200,0 150,0 Q 100,0 400,350 Q 700,700 350,350 Q 0,0 300,350 "></path>

  <path transform="translate(3650,0)" d="M 50,350 Q 100,700 150,700 Q 200,700 250,350 Q 300,0 350,0 Q 400,0 450,350 Q 500,700 550,700 Q 600,700 650,350 Q 700,0 700,50 Q 700,100 700,150 Q 700,200 350,250 Q 0,300 350,350 Q 700,400 350,450 Q 0,500 0,550 Q 0,600 50,350 Q 100,100 150,350 Q 200,600 250,600 Q 300,600 450,400 Q 600,200 500,150 Q 400,100 500,100 Q 600,100 550,350 Q 500,600 300,450 Q 100,300 350,350 Q 600,400 350,450 Q 100,500 150,350 Q 200,200 300,350 Q 400,500 350,500 Q 300,500 400,350 Q 500,200 500,300 Q 500,400 400,350 Q 300,300 350,300 Q 400,300 300,350 Q 200,400 350,350 Q 500,300 400,350 Q 300,400 350,400 Q 400,400 300,350 Q 200,300 200,400 Q 200,500 300,350 Q 400,200 350,200 Q 300,200 400,350 Q 500,500 550,500 Q 600,500 350,450 Q 100,400 350,350 Q 600,300 550,200 Q 500,100 300,350 Q 100,600 250,600 Q 400,600 250,400 Q 100,200 200,150 Q 300,100 250,100 Q 200,100 400,350 Q 600,600 650,600 Q 700,600 700,550 Q 700,500 350,450 Q 0,400 350,350 Q 700,300 350,250 Q 0,200 0,150 Q 0,100 0,400 Q 0,700 300,350 Q 600,0 550,0 Q 500,0 450,350 Q 400,700 350,700 Q 300,700 250,350 Q 200,0 150,0 Q 100,0 400,350 Q 700,700 350,350 Q 0,0 50,350 "></path>

  <path transform="translate(4350,0)" d="M 500,550 Q 300,400 400,550 Q 500,700 300,550 Q 100,400 200,500 Q 300,600 500,550 Q 700,500 400,550 Q 100,600 300,550 Q 500,500 600,300 Q 700,100 500,150 Q 300,200 400,150 Q 500,100 300,150 Q 100,200 200,100 Q 300,0 500,150 Q 700,300 400,150 Q 100,0 300,150 Q 500,300 550,300 Q 600,300 400,150 Q 200,0 300,150 Q 400,300 200,150 Q 0,0 100,100 Q 200,200 400,150 Q 600,100 300,150 Q 0,200 200,150 Q 400,100 500,300 Q 600,500 400,550 Q 200,600 300,550 Q 400,500 200,550 Q 0,600 100,500 Q 200,400 400,550 Q 600,700 300,550 Q 0,400 200,550 Q 400,700 200,500 Q 0,300 200,150 Q 400,0 300,150 Q 200,300 400,150 Q 600,0 500,100 Q 400,200 200,150 Q 0,100 300,150 Q 600,200 400,150 Q 200,100 100,300 Q 0,500 200,550 Q 400,600 300,550 Q 200,500 400,550 Q 600,600 500,500 Q 400,400 200,550 Q 0,700 300,550 Q 600,400 400,550 Q 200,700 150,700 Q 100,700 300,550 Q 500,400 400,550 Q 300,700 500,550 Q 700,400 600,500 Q 500,600 300,550 Q 100,500 400,550 Q 700,600 500,550 Q 300,500 200,300 Q 100,100 300,150 Q 500,200 400,150 Q 300,100 500,150 Q 700,200 600,100 Q 500,0 300,150 Q 100,300 400,150 Q 700,0 500,150 Q 300,300 500,500 Q 700,700 500,550 "></path>

  <path transform="translate(5050,0)" d="M 200,250 Q 400,200 200,150 Q 0,100 200,50 Q 400,0 400,200 Q 400,400 200,450 Q 0,500 200,550 Q 400,600 200,650 Q 0,700 50,700 Q 100,700 300,650 Q 500,600 300,550 Q 100,500 300,450 Q 500,400 500,200 Q 500,0 300,50 Q 100,100 300,150 Q 500,200 300,250 Q 100,300 150,300 Q 200,300 400,250 Q 600,200 400,150 Q 200,100 400,50 Q 600,0 600,200 Q 600,400 400,450 Q 200,500 400,550 Q 600,600 400,650 Q 200,700 250,700 Q 300,700 500,650 Q 700,600 500,550 Q 300,500 500,450 Q 700,400 700,200 Q 700,0 500,50 Q 300,100 500,150 Q 700,200 500,250 Q 300,300 500,500 Q 700,700 500,650 Q 300,600 500,550 Q 700,500 500,450 Q 300,400 300,200 Q 300,0 500,50 Q 700,100 500,150 Q 300,200 500,250 Q 700,300 650,300 Q 600,300 400,250 Q 200,200 400,150 Q 600,100 400,50 Q 200,0 200,200 Q 200,400 400,450 Q 600,500 400,550 Q 200,600 400,650 Q 600,700 550,700 Q 500,700 300,650 Q 100,600 300,550 Q 500,500 300,450 Q 100,400 100,200 Q 100,0 300,50 Q 500,100 300,150 Q 100,200 300,250 Q 500,300 450,300 Q 400,300 200,250 Q 0,200 200,150 Q 400,100 200,50 Q 0,0 0,200 Q 0,400 200,450 Q 400,500 200,550 Q 0,600 200,650 Q 400,700 200,500 Q 0,300 200,250 "></path>

  <path transform="translate(5800,0)" d="M 350,100 Q 700,0 700,300 Q 700,600 350,500 Q 0,400 350,400 Q 700,400 350,500 Q 0,600 0,300 Q 0,0 350,100 Q 700,200 450,350 Q 200,500 350,600 Q 500,700 500,400 Q 500,100 350,200 Q 200,300 350,300 Q 500,300 350,200 Q 200,100 200,400 Q 200,700 350,600 Q 500,500 550,500 Q 600,500 350,600 Q 100,700 100,400 Q 100,100 350,200 Q 600,300 350,300 Q 100,300 350,200 Q 600,100 600,400 Q 600,700 350,600 Q 100,500 250,350 Q 400,200 350,100 Q 300,0 300,300 Q 300,600 350,500 Q 400,400 350,400 Q 300,400 350,500 Q 400,600 400,300 Q 400,0 350,100 Q 300,200 350,350 Q 400,500 350,600 Q 300,700 300,400 Q 300,100 350,200 Q 400,300 350,300 Q 300,300 350,200 Q 400,100 400,400 Q 400,700 350,600 Q 300,500 450,350 Q 600,200 350,100 Q 100,0 100,300 Q 100,600 350,500 Q 600,400 350,400 Q 100,400 350,500 Q 600,600 600,300 Q 600,0 350,100 Q 100,200 150,200 Q 200,200 350,100 Q 500,0 500,300 Q 500,600 350,500 Q 200,400 350,400 Q 500,400 350,500 Q 200,600 200,300 Q 200,0 350,100 Q 500,200 250,350 Q 0,500 350,600 Q 700,700 700,400 Q 700,100 350,200 Q 0,300 350,300 Q 700,300 350,200 Q 0,100 0,400 Q 0,700 350,600 Q 700,500 350,350 Q 0,200 350,100 "></path>

</svg>
